# AST/ASF file generated using VICON BodyLanguage
# -----------------------------------------------
:version 1.10
:name VICON
:units
  mass 1.0
  length 0.45
  angle deg
:documentation
   .ast/.asf automatically generated from VICON data using
   VICON BodyBuilder and BodyLanguage model FoxedUp or BRILLIANT.MOD
:root
   order TX TY TZ RX RY RZ
   axis XYZ
   position 0 0 0  
   orientation 0 0 0 
:bonedata
  begin
     id 1 
     name lhipjoint
     direction 0.521689 -0.742065 0.420928 
     length 2.47002 
     axis 0 0 0  XYZ
  end
  begin
     id 2 
     name lfemur
     direction 0.34202 -0.939693 0  
     length 7.24654  
     axis 0 0 20  XYZ
    dof rx ry rz
    limits (-160.0 20.0)
           (-70.0 70.0)
           (-60.0 70.0)
  end
  begin
     id 3 
     name ltibia
     direction 0.34202 -0.939693 0   
     length 8.04849   
     axis 0 0 20   XYZ
    dof rx
    limits (-10.0 170.0)
  end
  begin
     id 4 
     name lfoot
     direction 0.0745411 -0.2048 0.975961   
     length 1.72367   
     axis -90 7.62852e-016 20   XYZ
    dof rx rz
    limits (-45.0 90.0)
           (-70.0 20.0)
  end
  begin
     id 5 
     name ltoes
     direction 1.53556e-011 -4.21901e-011 1   
     length 0.87311   
     axis -90 7.62852e-016 20   XYZ
    dof rx
    limits (-90.0 20.0)
  end
  begin
     id 6 
     name rhipjoint
     direction -0.52849 -0.738415 0.418857   
     length 2.48223  
     axis 0 0 0  XYZ 
  end
  begin
     id 7 
     name rfemur
     direction -0.34202 -0.939693 0   
     length 7.15571   
     axis 0 0 -20   XYZ
    dof rx ry rz
    limits (-160.0 20.0)
           (-70.0 70.0)
           (-70.0 60.0)
  end
  begin
     id 8 
     name rtibia
     direction -0.34202 -0.939693 0   
     length 7.81659   
     axis 0 0 -20   XYZ
    dof rx
    limits (-10.0 170.0)
 end
 begin
     id 9 
     name rfoot
     direction -0.0917348 -0.252039 0.963359   
     length 1.84382  
     axis -90 -7.62852e-016 -20   XYZ
    dof rx rz
    limits (-45.0 90.0)
           (-20.0 70.0)
  end
  begin
     id 10 
     name rtoes
     direction -1.53551e-011 -4.21879e-011 1   
     length 0.927771   
     axis -90 -7.62852e-016 -20   XYZ
    dof rx
    limits (-90.0 20.0)
  end
  begin
     id 11 
     name lowerback
     direction 0.00583058 0.999822 0.0179296   
     length 2.1429   
     axis 0 0 0   XYZ
    dof rx ry rz
    limits (-20.0 45.0)
           (-30.0 30.0)
           (-30.0 30.0)
  end
  begin
     id 12 
     name upperback
     direction -0.0137999 0.999752 -0.0175071   
     length 2.14252   
     axis 0 0 0   XYZ
    dof rx ry rz
    limits (-20.0 45.0)
           (-30.0 30.0)
           (-30.0 30.0)
  end
  begin
     id 13 
     name thorax
     direction -0.0158036 0.99955 -0.0254909   
     length 2.1383   
     axis 0 0 0   XYZ
    dof rx ry rz
    limits (-20.0 45.0)
           (-30.0 30.0)
           (-30.0 30.0)
  end
  begin
     id 14 
     name lowerneck
     direction -0.0101179 0.999403 -0.0330262   
     length 1.65808   
     axis 0 0 0   XYZ
    dof rx ry rz
    limits (-20.0 45.0)
           (-30.0 30.0)
           (-30.0 30.0)
  end
  begin
     id 15 
     name upperneck
     direction 0.0497734 0.995978 -0.074501   
     length 1.5897   
     axis 0 0 0   XYZ
    dof rx ry rz
    limits (-20.0 45.0)
           (-30.0 30.0)
           (-30.0 30.0)
  end
  begin
     id 16
     name head
     direction 0.0189524 0.999519 -0.0245438  
     length 1.74024  
     axis 0 0 0   XYZ
    dof rx ry rz
    limits (-20.0 45.0)
           (-30.0 30.0)
           (-30.0 30.0)
  end
  begin
     id 17 
     name lclavicle
     direction 0.945604 0.324422 0.0241537  
     length 3.59089  
     axis 0 0 0   XYZ
    dof ry rz
    limits (-20.0 10.0)
           (0.0 20.0)
  end
  begin
     id 18 
     name lhumerus
     direction 1 -4.48964e-011 -2.63524e-027   
     length 5.2391   
     axis 180 -30 -90   XYZ
    dof rx ry rz
    limits (-60.0 90.0)
           (-90.0 90.0)
           (-90.0 90.0)
  end
  begin
     id 19
     name lradius
     direction 1 -4.48969e-011 3.86978e-028   
     length 3.31467   
     axis 180 -30 -90   XYZ
    dof rx
    limits (-10.0 170.0)
  end
  begin
     id 20
     name lwrist
     direction 1 -4.48963e-011 7.20928e-028   
     length 1.65734   
     axis -5.52449e-016 90 90   XYZ
    dof ry
    limits (-180.0 0.0)
 end
  begin
     id 21 
     name lhand
     direction 1 -4.48964e-011 1.44186e-027   
     length 0.9659   
     axis -9.20027e-016 90 90   XYZ
    dof rx rz
    limits (-90.0 90.0)
           (-45.0 45.0)
  end
  begin
     id 22 
     name lfingers
     direction 1 -4.48965e-011 2.88371e-027   
     length 0.778733   
     axis -1.84005e-015 90 90   XYZ
    dof rx
    limits (0.0 90.0)
  end
  begin
     id 23
     name lthumb
     direction 0.707107 -6.34931e-011 0.707107   
     length 1.11811   
     axis -90 45 2.85299e-015   XYZ
    dof rx rz
    limits (-45.0 45.0)
           (-45.0 45.0)
  end
  begin
     id 24 
     name rclavicle
     direction -0.923762 0.370785 0.0958234   
     length 3.54196  
     axis 0 0 0   XYZ 
    dof ry rz
    limits (-10.0 20.0)
           (-20.0 0.0)
  end
  begin
     id 25 
     name rhumerus
     direction -1 -4.48966e-011 1.18702e-017  
     length 5.30252   
     axis 180 30 90   XYZ
    dof rx ry rz
    limits (-90.0 60.0)
           (-90.0 90.0)
           (-90.0 90.0)
  end
  begin
     id 26 
     name rradius
     direction -1 -4.48966e-011 4.46736e-027   
     length 3.67875   
     axis 180 30 90   XYZ
    dof rx
    limits (-10.0 170.0)
  end
  begin
     id 27 
     name rwrist
     direction -1 -4.48966e-011 7.20928e-028   
     length 1.83937   
     axis -5.52449e-016 -90 -90   XYZ
    dof ry
    limits (-180.0 0.0)
  end
  begin
     id 28
     name rhand
     direction -1 -4.48973e-011 1.44186e-027   
     length 0.594811   
     axis -9.20027e-016 -90 -90   XYZ
    dof rx rz
    limits (-90.0 90.0)
           (-45.0 45.0)
  end
  begin
     id 29
     name rfingers
     direction -1 -4.48963e-011 2.88371e-027   
     length 0.479552   
     axis -1.84005e-015 -90 -90   XYZ
    dof rx
    limits (0.0 90.0)
  end
  begin
     id 30
     name rthumb
     direction -0.707107 -6.34932e-011 0.707107   
     length 0.688544   
     axis -90 -45 -2.85299e-015   XYZ
    dof rx rz
    limits (-45.0 45.0)
           (-45.0 45.0)
  end
:hierarchy
  begin
    root lhipjoint rhipjoint lowerback
    lhipjoint lfemur
    lfemur ltibia
    ltibia lfoot
    lfoot ltoes
    rhipjoint rfemur
    rfemur rtibia
    rtibia rfoot
    rfoot rtoes
    lowerback upperback
    upperback thorax
    thorax lowerneck lclavicle rclavicle
    lowerneck upperneck
    upperneck head
    lclavicle lhumerus
    lhumerus lradius
    lradius lwrist
    lwrist lhand lthumb
    lhand lfingers
    rclavicle rhumerus
    rhumerus rradius
    rradius rwrist
    rwrist rhand rthumb
    rhand rfingers
  end

#!OML:ASF E:\acrobat2\Project_11_07_03\Capture day 1\Session 1\Acrobat.ASF
:FULLY-SPECIFIED
:DEGREES
508
root 7.54111 16.8236 23.2972 -525.609 -82.1194 -535.67
lowerback 17.1542 2.70471 5.75462
upperback 8.54082 3.76974 -0.48955
thorax -0.00926957 1.83068 -4.37638
lowerneck 1.45752 6.33878 -0.113737
upperneck -7.0696 8.17563 -4.99678
head -2.26829 4.21485 -1.75525
rclavicle -5.08889e-014 -1.43125e-014
rhumerus -44.1125 -34.5543 -31.2539
rradius 13.175
rwrist 12.4748
rhand -16.01 -51.2133
rfingers 7.12502
rthumb 10.1905 -80.9465
lclavicle -5.08889e-014 -1.43125e-014
lhumerus 25.668 -25.8894 6.7816
lradius 32.5794
lwrist 15.8288
lhand -42.549 -25.6705
lfingers 7.12502
lthumb -15.424 3.73408
rfemur -42.6783 -12.5865 -3.01855
rtibia 69.4535
rfoot 3.77334 -6.2699
rtoes 3.08395
lfemur -47.4705 2.46733 -6.80637
ltibia 66.1899
lfoot -9.56383 -12.7779
ltoes 23.5294
509
root 7.42996 16.9979 23.4303 -529.177 -80.6757 -532.701
lowerback 16.9693 2.62807 5.68804
upperback 8.40295 3.65432 -0.830866
thorax -0.0548613 1.77747 -4.67742
lowerneck 1.26828 6.44567 0.88693
upperneck -6.71215 8.34961 -5.38392
head -2.0546 4.28129 -2.02569
rclavicle 2.42517e-014 -1.15295e-014
rhumerus -45.9277 -33.9729 -30.4286
rradius 14.0092
rwrist 6.93377
rhand -17.9471 -52.962
rfingers 7.12502
rthumb 8.32138 -82.7781
lclavicle 2.42517e-014 -1.15295e-014
lhumerus 27.7511 -25.9332 7.36929
lradius 32.7286
lwrist 15.6961
lhand -41.6263 -25.8725
lfingers 7.12502
lthumb -14.5351 3.59831
rfemur -41.3925 -12.767 -2.24108
rtibia 68.1819
rfoot 4.09773 -6.89024
rtoes 4.31942
lfemur -46.7018 3.68053 -6.64964
ltibia 66.4872
lfoot -4.89802 -11.0261
ltoes 28.7806
510
root 7.31353 17.1659 23.5613 -531.476 -79.3128 -530.999
lowerback 16.7655 2.68398 5.74223
upperback 8.19714 3.73318 -1.34079
thorax -0.116252 1.82964 -5.25656
lowerneck 1.10736 6.40049 2.34756
upperneck -6.23157 8.34947 -5.50775
head -1.80514 4.24468 -2.28669
rclavicle 4.37326e-015 -3.18055e-015
rhumerus -48.492 -33.429 -29.4398
rradius 14.9397
rwrist 3.05005
rhand -20.2968 -53.0351
rfingers 7.12502
rthumb 6.05326 -82.9286
lclavicle 4.37326e-015 -3.18055e-015
lhumerus 30.3097 -26.294 7.81619
lradius 32.8747
lwrist 15.5735
lhand -40.8472 -25.9544
lfingers 7.12502
lthumb -13.7844 3.5689
rfemur -39.9726 -13.1552 -1.61474
rtibia 66.9647
rfoot 3.83051 -7.17088
rtoes 4.17309
lfemur -46.0106 4.70074 -6.42801
ltibia 66.6918
lfoot -0.555897 -8.64921
ltoes 35.068
511
root 7.18701 17.3278 23.691 -534.071 -77.8559 -528.958
lowerback 16.2997 2.46316 5.58837
upperback 8.00761 3.41939 -1.43549
thorax -0.124128 1.67197 -5.20423
lowerneck 1.13487 6.72453 2.04155
upperneck -5.79934 8.81484 -5.02191
head -1.68402 4.47165 -2.06827
rclavicle -4.01545e-014 8.15017e-015
rhumerus -49.3844 -32.3723 -28.4641
rradius 15.5901
rwrist 0.414728
rhand -21.4161 -52.764
rfingers 7.12502
rthumb 4.97254 -82.6857
lclavicle -4.01545e-014 8.15017e-015
lhumerus 30.9785 -26.4401 9.76311
lradius 32.9021
lwrist 15.2696
lhand -40.1315 -26.2857
lfingers 7.12502
lthumb -13.0946 3.28323
rfemur -38.4802 -13.3642 -0.883737
rtibia 65.67
rfoot 2.86571 -7.38933
rtoes 3.57789
lfemur -45.2513 5.76548 -5.87942
ltibia 66.6126
lfoot 3.69858 -5.8593
ltoes 42.0662
512
root 7.05337 17.4822 23.8152 -536.465 -76.1818 -527.101
lowerback 15.9478 2.62995 5.79602
upperback 7.73898 3.66634 -1.82099
thorax -0.14871 1.81032 -5.75609
lowerneck 0.789013 6.67883 2.85879
upperneck -5.02666 8.80764 -4.66032
head -1.35682 4.43803 -2.04695
rclavicle 7.82715e-015 4.47266e-014
rhumerus -50.7919 -30.2931 -28.757
rradius 16.1026
rwrist -1.55522
rhand -22.2954 -51.9816
rfingers 7.12502
rthumb 4.12349 -81.9214
lclavicle 7.82715e-015 4.47266e-014
lhumerus 32.8911 -26.9487 10.9384
lradius 33.0636
lwrist 15.0884
lhand -39.2423 -26.6927
lfingers 7.12502
lthumb -12.2373 2.92924
rfemur -36.9725 -13.5272 -0.118804
rtibia 64.2566
rfoot 1.74241 -7.67549
rtoes 3.11803
lfemur -44.2214 6.80665 -5.00686
ltibia 66.2805
lfoot 7.60809 -3.34451
ltoes 47.5414
513
root 6.91551 17.63 23.9376 -538.044 -74.3697 -526.115
lowerback 15.5682 2.54404 5.58364
upperback 7.48305 3.52889 -1.92831
thorax -0.252204 1.73489 -5.71722
lowerneck 0.678907 6.99622 2.59472
upperneck -4.43424 9.25432 -4.27162
head -1.16125 4.6573 -1.85551
rclavicle 4.53229e-014 5.58585e-014
rhumerus -51.0957 -28.325 -28.7246
rradius 16.3393
rwrist -1.31991
rhand -21.947 -51.4033
rfingers 7.12502
rthumb 4.45995 -81.3363
lclavicle 4.53229e-014 5.58585e-014
lhumerus 33.1092 -27.4874 13.0152
lradius 33.2769
lwrist 14.8614
lhand -38.6068 -27.1399
lfingers 7.12502
lthumb -11.6245 2.51768
rfemur -35.4224 -13.8185 0.460297
rtibia 62.8578
rfoot 0.63281 -7.8114
rtoes 1.75784
lfemur -42.8437 7.63005 -4.08141
ltibia 65.7004
lfoot 10.7465 -1.38681
ltoes 49.337
514
root 6.77116 17.7731 24.0627 -539.387 -72.4696 -525.372
lowerback 15.175 2.52629 5.34827
upperback 7.24815 3.47484 -2.05449
thorax -0.312814 1.70254 -5.69562
lowerneck 0.504375 7.26951 2.8786
upperneck -3.87994 9.63697 -4.19143
head -0.933297 4.84083 -1.85013
rclavicle 9.34288e-015 3.18055e-014
rhumerus -51.3927 -26.4414 -28.7166
rradius 16.5715
rwrist -0.340922
rhand -21.2191 -50.7607
rfingers 7.12502
rthumb 5.16284 -80.6778
lclavicle 9.34288e-015 3.18055e-014
lhumerus 33.304 -28.4418 14.6941
lradius 33.7441
lwrist 15.0459
lhand -38.4394 -27.4689
lfingers 7.12502
lthumb -11.4631 2.1977
rfemur -33.822 -14.1025 0.958502
rtibia 61.5006
rfoot -0.325096 -7.75983
rtoes 0.324401
lfemur -41.2164 8.20486 -3.06591
ltibia 64.8742
lfoot 13.5888 -0.421083
ltoes 49.4735
515
root 6.62357 17.9106 24.1906 -541.266 -70.6183 -524.1
lowerback 14.8154 2.44931 5.32505
upperback 7.02524 3.3769 -2.01568
thorax -0.378697 1.65065 -5.6148
lowerneck 0.10661 7.52851 3.0043
upperneck -3.08872 9.99654 -4.01852
head -0.607627 5.0124 -1.77039
rclavicle -1.35174e-014 -3.57812e-014
rhumerus -51.2413 -23.9744 -29.1457
rradius 16.859
rwrist 0.231458
rhand -20.4033 -49.719
rfingers 7.12502
rthumb 5.95046 -79.6155
lclavicle -1.35174e-014 -3.57812e-014
lhumerus 33.0991 -29.2784 16.8093
lradius 34.1558
lwrist 14.9634
lhand -38.3315 -28.0059
lfingers 7.12502
lthumb -11.359 1.66642
rfemur -32.0862 -14.5394 1.62857
rtibia 60.1874
rfoot -0.970703 -7.6464
rtoes -0.379583
lfemur -39.3955 8.4416 -1.7556
ltibia 63.9593
lfoot 16.4503 -0.649733
ltoes 51.9699
516
root 6.47435 18.0331 24.3187 -543.121 -68.8173 -522.883
lowerback 14.5683 2.37384 5.58043
upperback 6.80168 3.31963 -2.00041
thorax -0.476024 1.62469 -5.72936
lowerneck -0.395648 7.75109 3.09045
upperneck -2.24137 10.3023 -3.73312
head -0.260159 5.15641 -1.64311
rclavicle -4.41302e-014 -3.57812e-014
rhumerus -51.3984 -21.7578 -29.3167
rradius 17.3341
rwrist 0.891581
rhand -19.1979 -48.6245
rfingers 7.12502
rthumb 7.11415 -78.4849
lclavicle -4.41302e-014 -3.57812e-014
lhumerus 32.9596 -30.1458 18.9505
lradius 34.5178
lwrist 14.71
lhand -38.2152 -28.6547
lfingers 7.12502
lthumb -11.2468 1.02378
rfemur -30.2234 -15.112 2.2568
rtibia 58.8194
rfoot -1.42618 -7.68347
rtoes -0.73105
lfemur -37.45 8.45826 -0.374825
ltibia 63.0107
lfoot 16.4518 -1.58685
ltoes 51.8228
